<svg width="137" height="25" viewBox="0 0 137 25" fill="none" xmlns="http://www.w3.org/2000/svg">
<path d="M7.064 6.464V10.144H14.264V14.912H7.064V18.976H15.224V24H0.792V1.44H15.224V6.464H7.064ZM17.2993 15.008C17.2993 13.152 17.6299 11.5307 18.2913 10.144C18.9739 8.75733 19.9019 7.69067 21.0753 6.944C22.2486 6.19733 23.5499 5.824 24.9792 5.824C26.1313 5.824 27.1553 6.06933 28.0513 6.56C28.9686 7.02933 29.6833 7.68 30.1953 8.512V0.32H36.4993V24H30.1953V21.504C29.7046 22.336 29.0113 22.9973 28.1153 23.488C27.2193 23.9787 26.1633 24.224 24.9473 24.224C23.5179 24.224 22.2166 23.8507 21.0433 23.104C19.8913 22.3573 18.9739 21.2907 18.2913 19.904C17.6299 18.496 17.2993 16.864 17.2993 15.008ZM30.2273 15.008C30.2273 13.856 29.9073 12.9493 29.2673 12.288C28.6486 11.6267 27.8806 11.296 26.9633 11.296C26.0246 11.296 25.2459 11.6267 24.6273 12.288C24.0086 12.928 23.6993 13.8347 23.6993 15.008C23.6993 16.16 24.0086 17.0773 24.6273 17.76C25.2459 18.4213 26.0246 18.752 26.9633 18.752C27.8806 18.752 28.6486 18.4213 29.2673 17.76C29.9073 17.0987 30.2273 16.1813 30.2273 15.008ZM58.4413 6.048V24H52.1373V21.44C51.6039 22.2507 50.8679 22.912 49.9293 23.424C48.9906 23.9147 47.9133 24.16 46.6973 24.16C44.6066 24.16 42.9533 23.4773 41.7373 22.112C40.5426 20.7253 39.9453 18.848 39.9453 16.48V6.048H46.1853V15.68C46.1853 16.704 46.4519 17.5147 46.9853 18.112C47.5399 18.688 48.2653 18.976 49.1613 18.976C50.0786 18.976 50.8039 18.688 51.3373 18.112C51.8706 17.5147 52.1373 16.704 52.1373 15.68V6.048H58.4413ZM82.2028 1.44V24H75.9308V14.944H68.2828V24H62.0108V1.44H68.2828V9.92H75.9308V1.44H82.2028ZM104.16 6.048V24H97.856V21.44C97.3227 22.2507 96.5867 22.912 95.648 23.424C94.7093 23.9147 93.632 24.16 92.416 24.16C90.3253 24.16 88.672 23.4773 87.456 22.112C86.2613 20.7253 85.664 18.848 85.664 16.48V6.048H91.904V15.68C91.904 16.704 92.1707 17.5147 92.704 18.112C93.2587 18.688 93.984 18.976 94.88 18.976C95.7973 18.976 96.5227 18.688 97.056 18.112C97.5893 17.5147 97.856 16.704 97.856 15.68V6.048H104.16ZM114.002 8.544C114.492 7.69067 115.186 7.02933 116.082 6.56C116.978 6.06933 118.034 5.824 119.25 5.824C120.679 5.824 121.97 6.19733 123.122 6.944C124.295 7.69067 125.212 8.75733 125.874 10.144C126.556 11.5307 126.898 13.152 126.898 15.008C126.898 16.864 126.556 18.496 125.874 19.904C125.212 21.2907 124.295 22.3573 123.122 23.104C121.97 23.8507 120.679 24.224 119.25 24.224C118.034 24.224 116.978 23.9893 116.082 23.52C115.186 23.0293 114.492 22.3573 114.002 21.504V24H107.73V0.32H114.002V8.544ZM120.53 15.008C120.53 13.8347 120.21 12.928 119.57 12.288C118.951 11.6267 118.183 11.296 117.266 11.296C116.348 11.296 115.57 11.6267 114.93 12.288C114.311 12.9493 114.002 13.856 114.002 15.008C114.002 16.1813 114.311 17.0987 114.93 17.76C115.57 18.4213 116.348 18.752 117.266 18.752C118.183 18.752 118.951 18.4213 119.57 17.76C120.21 17.0773 120.53 16.16 120.53 15.008ZM132.52 24.256C131.41 24.256 130.514 23.9573 129.832 23.36C129.17 22.7413 128.84 21.9627 128.84 21.024C128.84 20.0853 129.17 19.3067 129.832 18.688C130.514 18.0693 131.41 17.76 132.52 17.76C133.608 17.76 134.482 18.0693 135.144 18.688C135.826 19.3067 136.168 20.0853 136.168 21.024C136.168 21.9413 135.826 22.7093 135.144 23.328C134.482 23.9467 133.608 24.256 132.52 24.256Z" fill="#45BA65"/>
</svg>
