<svg width="38" height="35" viewBox="0 0 38 35" fill="none" xmlns="http://www.w3.org/2000/svg">
<path d="M34.0915 35H3.63388C1.62569 35 0 33.3743 0 31.3661V3.63388C0 1.62568 1.62569 0 3.63388 0H34.0915C36.0997 0 37.7254 1.62568 37.7254 3.63388V31.3661C37.7254 33.3265 36.0997 35 34.0915 35Z" fill="black"/>
<path fill-rule="evenodd" clip-rule="evenodd" d="M7.8894 24.4809C9.51509 24.5765 11.093 24.3374 12.623 23.668C13.2924 23.3812 13.914 22.9986 14.5356 22.5205C13.8184 22.4727 13.149 22.3292 12.5752 22.0424C11.5711 21.5164 10.8539 20.7036 10.4236 19.6038C10.3279 19.3648 10.3279 19.3648 10.6148 19.3648C11.332 19.4604 11.858 19.4126 12.2883 19.2691C11.9058 19.1257 11.5233 19.0779 11.2364 18.8388C9.70634 18.026 8.94132 16.735 8.79788 14.9659C8.79788 14.7746 8.84569 14.7268 9.03695 14.8224C9.56291 15.1093 10.1367 15.2527 10.8061 15.3005C10.5192 15.0137 10.2801 14.8224 10.041 14.5833C8.79787 13.2445 8.51099 11.0929 9.32383 9.46722C9.41946 9.22815 9.46728 9.22815 9.61072 9.4194C11.7145 11.8579 14.3443 13.3402 17.5001 13.8183C17.8348 13.8661 18.1695 13.8661 18.5042 13.9618C18.7432 14.0096 18.7432 13.8661 18.7432 13.7227C18.4085 11.8101 19.317 9.94536 20.9905 8.98907C22.7118 7.98498 24.9591 8.31968 26.2979 9.65847C26.4413 9.80192 26.6326 9.84973 26.776 9.80192C27.6367 9.61066 28.4017 9.27596 29.1667 8.89345C29.2145 8.89345 29.2624 8.84563 29.358 8.75C29.0233 9.80192 28.4017 10.6148 27.4454 11.2363C28.3061 11.1407 29.1189 10.9016 29.8839 10.6148C29.8839 10.7104 29.8361 10.806 29.7883 10.8538C29.2624 11.571 28.6408 12.2404 27.9236 12.7664C27.7801 12.862 27.7323 12.9577 27.7323 13.1489C27.7801 16.4481 26.7282 19.4126 24.6244 21.9945C22.6162 24.3374 20.082 25.724 17.0697 26.25C13.8662 26.776 10.8539 26.2022 8.08067 24.4809C7.93722 24.5287 7.8894 24.4809 7.8894 24.4809Z" fill="white"/>
</svg>
